name Walk7.mot
datacolumns 19
datarows 22
range 1.82800000 1.84900000
endheader

                time	   L_ground_force_vx	   L_ground_force_vy	   L_ground_force_vz	   L_ground_force_px	   L_ground_force_py	   L_ground_force_pz	   R_ground_force_vx	   R_ground_force_vy	   R_ground_force_vz	   R_ground_force_px	   R_ground_force_py	   R_ground_force_pz	   L_ground_torque_x	   L_ground_torque_y	   L_ground_torque_z	   R_ground_torque_x	   R_ground_torque_y	   R_ground_torque_z	
          1.82800000	          0.00000000	          0.00000000	          0.00000000	          0.00000000	          0.00000000	          0.00000000	         18.48418289	        675.63339947	        -20.53323106	         -0.12105377	          0.00000000	          0.30541886	          0.00000000	          0.00000000	          0.00000000	          0.00000000	          2.37245706	          0.00000000	
          1.82900000	          0.00000000	          0.00000000	          0.00000000	          0.00000000	          0.00000000	          0.00000000	         18.90834817	        677.94864330	        -20.59845860	         -0.12065547	          0.00000000	          0.30553395	          0.00000000	          0.00000000	          0.00000000	          0.00000000	          2.36577169	          0.00000000	
          1.83000000	          0.00000000	          0.00000000	          0.00000000	          0.00000000	          0.00000000	          0.00000000	         19.34156673	        680.21117531	        -20.68301143	         -0.12023337	          0.00000000	          0.30562742	          0.00000000	          0.00000000	          0.00000000	          0.00000000	          2.36567643	          0.00000000	
          1.83100000	          0.00000000	          0.00000000	          0.00000000	          0.00000000	          0.00000000	          0.00000000	         19.79047147	        682.43507190	        -20.79900231	         -0.11978131	          0.00000000	          0.30568216	          0.00000000	          0.00000000	          0.00000000	          0.00000000	          2.36020449	          0.00000000	
          1.83200000	          0.00000000	          0.00000000	          0.00000000	          0.00000000	          0.00000000	          0.00000000	         20.25516808	        684.65302832	        -20.94728105	         -0.11930337	          0.00000000	          0.30567067	          0.00000000	          0.00000000	          0.00000000	          0.00000000	          2.34351425	          0.00000000	
          1.83300000	          0.00000000	          0.00000000	          0.00000000	          0.00000000	          0.00000000	          0.00000000	         20.73075194	        686.88902138	        -21.11843177	         -0.11881518	          0.00000000	          0.30559741	          0.00000000	          0.00000000	          0.00000000	          0.00000000	          2.31807566	          0.00000000	
          1.83400000	          0.00000000	          0.00000000	          0.00000000	          0.00000000	          0.00000000	          0.00000000	         21.21146859	        689.15893200	        -21.29840007	         -0.11833921	          0.00000000	          0.30550171	          0.00000000	          0.00000000	          0.00000000	          0.00000000	          2.28948866	          0.00000000	
          1.83500000	          0.00000000	          0.00000000	          0.00000000	          0.00000000	          0.00000000	          0.00000000	         21.69257558	        691.46956990	        -21.47453213	         -0.11789236	          0.00000000	          0.30541431	          0.00000000	          0.00000000	          0.00000000	          0.00000000	          2.26017122	          0.00000000	
          1.83600000	          0.00000000	          0.00000000	          0.00000000	          0.00000000	          0.00000000	          0.00000000	         22.16939649	        693.81164372	        -21.63858943	         -0.11747855	          0.00000000	          0.30533264	          0.00000000	          0.00000000	          0.00000000	          0.00000000	          2.22671586	          0.00000000	
          1.83700000	          0.00000000	          0.00000000	          0.00000000	          0.00000000	          0.00000000	          0.00000000	         22.63720686	        696.15655660	        -21.79005057	         -0.11708816	          0.00000000	          0.30524443	          0.00000000	          0.00000000	          0.00000000	          0.00000000	          2.18480943	          0.00000000	
          1.83800000	          0.00000000	          0.00000000	          0.00000000	          0.00000000	          0.00000000	          0.00000000	         23.09188044	        698.46243535	        -21.94220762	         -0.11670755	          0.00000000	          0.30515863	          0.00000000	          0.00000000	          0.00000000	          0.00000000	          2.13563836	          0.00000000	
          1.83900000	          0.00000000	          0.00000000	          0.00000000	          0.00000000	          0.00000000	          0.00000000	         23.52935169	        700.70523192	        -22.11581059	         -0.11633326	          0.00000000	          0.30509328	          0.00000000	          0.00000000	          0.00000000	          0.00000000	          2.08650127	          0.00000000	
          1.84000000	          0.00000000	          0.00000000	          0.00000000	          0.00000000	          0.00000000	          0.00000000	         23.95056324	        702.89945011	        -22.32206417	         -0.11596818	          0.00000000	          0.30504549	          0.00000000	          0.00000000	          0.00000000	          0.00000000	          2.04496086	          0.00000000	
          1.84100000	          0.00000000	          0.00000000	          0.00000000	          0.00000000	          0.00000000	          0.00000000	         24.36945878	        705.06559284	        -22.55703630	         -0.11560736	          0.00000000	          0.30500376	          0.00000000	          0.00000000	          0.00000000	          0.00000000	          2.01111395	          0.00000000	
          1.84200000	          0.00000000	          0.00000000	          0.00000000	          0.00000000	          0.00000000	          0.00000000	         24.80818987	        707.20215816	        -22.80330452	         -0.11523906	          0.00000000	          0.30497824	          0.00000000	          0.00000000	          0.00000000	          0.00000000	          1.97843389	          0.00000000	
          1.84300000	          0.00000000	          0.00000000	          0.00000000	          0.00000000	          0.00000000	          0.00000000	         25.28022022	        709.30548654	        -23.03355779	         -0.11485244	          0.00000000	          0.30498970	          0.00000000	          0.00000000	          0.00000000	          0.00000000	          1.94318431	          0.00000000	
          1.84400000	          0.00000000	          0.00000000	          0.00000000	          0.00000000	          0.00000000	          0.00000000	         25.78112500	        711.37323231	        -23.22653354	         -0.11443770	          0.00000000	          0.30504825	          0.00000000	          0.00000000	          0.00000000	          0.00000000	          1.90832120	          0.00000000	
          1.84500000	          0.00000000	          0.00000000	          0.00000000	          0.00000000	          0.00000000	          0.00000000	         26.29504243	        713.38046632	        -23.38210621	         -0.11398856	          0.00000000	          0.30515567	          0.00000000	          0.00000000	          0.00000000	          0.00000000	          1.87744015	          0.00000000	
          1.84600000	          0.00000000	          0.00000000	          0.00000000	          0.00000000	          0.00000000	          0.00000000	         26.80928199	        715.29454457	        -23.51507222	         -0.11351089	          0.00000000	          0.30529958	          0.00000000	          0.00000000	          0.00000000	          0.00000000	          1.84845846	          0.00000000	
          1.84700000	          0.00000000	          0.00000000	          0.00000000	          0.00000000	          0.00000000	          0.00000000	         27.32635788	        717.12224379	        -23.63986342	         -0.11302792	          0.00000000	          0.30544595	          0.00000000	          0.00000000	          0.00000000	          0.00000000	          1.81383307	          0.00000000	
          1.84800000	          0.00000000	          0.00000000	          0.00000000	          0.00000000	          0.00000000	          0.00000000	         27.85966430	        718.92714909	        -23.76511045	         -0.11257389	          0.00000000	          0.30555276	          0.00000000	          0.00000000	          0.00000000	          0.00000000	          1.76616995	          0.00000000	
          1.84900000	          0.00000000	          0.00000000	          0.00000000	          0.00000000	          0.00000000	          0.00000000	         28.41545050	        720.79190546	        -23.89285046	         -0.11217378	          0.00000000	          0.30558827	          0.00000000	          0.00000000	          0.00000000	          0.00000000	          1.70538627	          0.00000000	
